<svg width="50" height="50" viewBox="0 0 50 50" fill="none" xmlns="http://www.w3.org/2000/svg">
<g clip-path="url(#clip0)">
<path fill-rule="evenodd" clip-rule="evenodd" d="M2.08301 24.134C2.08301 36.066 10.749 45.988 22.083 48V30.666H16.083V24H22.083V18.666C22.083 12.666 25.949 9.334 31.417 9.334C33.149 9.334 35.017 9.6 36.749 9.866V16H33.683C30.749 16 30.083 17.466 30.083 19.334V24H36.483L35.417 30.666H30.083V48C41.417 45.988 50.083 36.068 50.083 24.134C50.083 10.86 39.283 0 26.083 0C12.883 0 2.08301 10.86 2.08301 24.134Z" fill="#3B5998"/>
</g>
<defs>
<clipPath id="clip0">
<rect width="50" height="50" fill="white"/>
</clipPath>
</defs>
</svg>
