<svg width="50" height="50" viewBox="0 0 50 50" fill="none" xmlns="http://www.w3.org/2000/svg">
<path d="M45.4285 20.9196H43.7503V20.8332H25.0003V29.1665H36.7743C35.0566 34.0175 30.441 37.4998 25.0003 37.4998C18.0972 37.4998 12.5003 31.903 12.5003 24.9998C12.5003 18.0967 18.0972 12.4998 25.0003 12.4998C28.1868 12.4998 31.0857 13.7019 33.293 15.6655L39.1857 9.77275C35.4649 6.30505 30.4878 4.1665 25.0003 4.1665C13.4951 4.1665 4.16699 13.4946 4.16699 24.9998C4.16699 36.505 13.4951 45.8332 25.0003 45.8332C36.5055 45.8332 45.8337 36.505 45.8337 24.9998C45.8337 23.603 45.6899 22.2394 45.4285 20.9196Z" fill="#FFC107"/>
<path d="M6.56934 15.303L13.4141 20.3228C15.2662 15.7373 19.7516 12.4998 25.0006 12.4998C28.187 12.4998 31.086 13.7019 33.2933 15.6655L39.186 9.77275C35.4652 6.30505 30.4881 4.1665 25.0006 4.1665C16.9985 4.1665 10.0589 8.68421 6.56934 15.303Z" fill="#FF3D00"/>
<path d="M25 45.8331C30.3813 45.8331 35.2708 43.7737 38.9677 40.4247L32.5198 34.9685C30.3579 36.6126 27.7161 37.5019 25 37.4997C19.5813 37.4997 14.9802 34.0445 13.2469 29.2227L6.45312 34.457C9.90104 41.2039 16.9031 45.8331 25 45.8331Z" fill="#4CAF50"/>
<path d="M45.4281 20.92H43.75V20.8335H25V29.1668H36.774C35.9523 31.4756 34.4722 33.4931 32.5167 34.97L32.5198 34.9679L38.9677 40.4241C38.5115 40.8387 45.8333 35.4168 45.8333 25.0002C45.8333 23.6033 45.6896 22.2397 45.4281 20.92Z" fill="#1976D2"/>
</svg>
